<svg width="41" height="41" viewBox="0 0 41 41" fill="none" xmlns="http://www.w3.org/2000/svg">
<path d="M36.4704 7.79365L23.5461 0.876091C21.3637 -0.29207 18.6518 -0.291991 16.4693 0.876091L3.54514 7.79365C1.35838 8.96396 0 11.1466 0 13.4896V27.3139C0 29.657 1.35838 31.8395 3.54506 33.0099L16.4693 39.9274C18.6522 41.0958 21.3639 41.0954 23.5461 39.9274L36.4703 33.0099C38.657 31.8395 40.0154 29.657 40.0154 27.3139V13.4896C40.0154 11.1466 38.657 8.96404 36.4704 7.79365ZM36.5806 27.3139C36.5806 28.5208 35.8809 29.6451 34.7545 30.2479L21.8303 37.1654C20.706 37.7673 19.3093 37.7673 18.185 37.1654L5.26082 30.2479C4.13447 29.645 3.4348 28.5208 3.4348 27.3139V13.4896C3.4348 12.2828 4.13447 11.1585 5.26091 10.5557L18.185 3.63814C19.3094 3.03629 20.7065 3.03653 21.8304 3.63814L34.7546 10.5556C35.8809 11.1585 36.5806 12.2827 36.5806 13.4896V27.3139Z" fill="#C3C3C3"/>
<path d="M19.5 1.5L2.5 11.5L2 29L20.5 39.5L38 29V11L19.5 1.5Z" fill="#C3C3C3" stroke="#C3C3C3"/>
</svg>
