<svg width="89" height="89" viewBox="0 0 89 89" fill="none" xmlns="http://www.w3.org/2000/svg">
<g clip-path="url(#clip0_1_646)">
<path d="M64.6204 17.7843C58.5046 12.8715 48.842 12.0444 48.4284 12.0068C47.7892 11.9567 47.1751 12.3201 46.9119 12.9091C46.8994 12.9467 46.6864 13.4355 46.4482 14.1875C50.4837 14.8642 55.4466 16.2428 59.9458 19.025C60.6602 19.4762 60.8857 20.4161 60.4346 21.143C60.1463 21.6067 59.645 21.8699 59.1312 21.8699C58.8555 21.8699 58.5798 21.7947 58.3166 21.6318C50.6091 16.8444 40.959 16.6062 39.1042 16.6062C37.2494 16.6062 27.5993 16.8444 19.8918 21.6318C19.1649 22.083 18.2249 21.8574 17.7738 21.143C17.3226 20.4161 17.5482 19.4762 18.2751 19.025C22.7617 16.2428 27.7246 14.8642 31.7601 14.1875C31.522 13.423 31.3089 12.9467 31.2964 12.9091C31.0332 12.3201 30.4191 11.9441 29.7799 12.0068C29.3664 12.0444 19.7038 12.8715 13.5127 17.8595C10.2793 20.8422 3.8125 38.3252 3.8125 53.4269C3.8125 53.7026 3.8877 53.9658 4.01302 54.1914C8.47461 62.0367 20.6437 64.0796 23.4259 64.1798C23.4385 64.1798 23.451 64.1798 23.4761 64.1798C23.9648 64.1798 24.4285 63.9417 24.7168 63.5407L27.5241 59.6806C19.9544 57.7255 16.0819 54.4044 15.8688 54.2164C15.2297 53.6525 15.167 52.6875 15.731 52.0483C16.2949 51.4091 17.2599 51.3465 17.8866 51.9104C17.9868 51.9982 25.1053 58.0389 39.1042 58.0389C53.1281 58.0389 60.2466 51.9606 60.3218 51.9104C60.9609 51.359 61.9259 51.4091 62.4774 52.0483C63.0413 52.6875 62.9787 53.6525 62.3521 54.2039C62.1265 54.4044 58.2539 57.7255 50.6842 59.6806L53.4915 63.5407C53.7798 63.9417 54.2435 64.1673 54.7323 64.1673C54.7573 64.1673 54.7699 64.1673 54.7824 64.1673C57.5646 64.0796 69.7337 62.0367 74.1953 54.1914C74.3206 53.9532 74.3958 53.7026 74.3958 53.4269C74.3958 38.3252 67.929 20.8422 64.6204 17.7843ZM29.1283 47.2985C26.1706 47.2985 23.7643 44.5413 23.7643 41.1575C23.7643 37.7737 26.158 35.0166 29.1283 35.0166C32.0985 35.0166 34.5047 37.7737 34.5047 41.1575C34.5047 44.5413 32.0985 47.2985 29.1283 47.2985ZM49.0801 47.2985C46.1099 47.2985 43.7036 44.5413 43.7036 41.1575C43.7036 37.7737 46.1099 35.0166 49.0801 35.0166C52.0378 35.0166 54.444 37.7737 54.444 41.1575C54.444 44.5413 52.0378 47.2985 49.0801 47.2985Z" fill="#8E8E8E"/>
</g>
<defs>
<clipPath id="clip0_1_646">
<rect width="77" height="77" fill="white" transform="translate(3.5)"/>
</clipPath>
</defs>
</svg>
