<svg width="74" height="70" viewBox="0 0 74 70" fill="none" xmlns="http://www.w3.org/2000/svg">
<path d="M36.7961 0C16.4663 0 0 16.0493 0 35.8434C0 51.6829 10.5421 65.115 25.1593 69.8508C26.9992 70.1882 27.6737 69.0787 27.6737 68.1273C27.6737 67.2762 27.6431 65.0208 27.6278 62.0328C17.3923 64.194 15.2336 57.2241 15.2336 57.2241C13.5594 53.0872 11.14 51.9808 11.14 51.9808C7.80691 49.7588 11.3976 49.8044 11.3976 49.8044C15.0925 50.0536 17.0335 53.4976 17.0335 53.4976C20.3145 58.978 25.6469 57.3944 27.7504 56.4794C28.0816 54.1602 29.0291 52.5826 30.0808 51.6859C21.909 50.7892 13.3202 47.7071 13.3202 33.974C13.3202 30.062 14.746 26.8643 17.1071 24.3566C16.6932 23.4508 15.4513 19.8063 17.4291 14.8699C17.4291 14.8699 20.5108 13.9094 27.548 18.5448C30.4917 17.7484 33.6194 17.3533 36.7471 17.335C39.8747 17.3533 43.0024 17.7484 45.9461 18.5448C52.9374 13.9094 56.019 14.8699 56.019 14.8699C57.9968 19.8063 56.7549 23.4508 56.387 24.3566C58.7327 26.8643 60.1586 30.062 60.1586 33.974C60.1586 47.7435 51.5575 50.774 43.3704 51.6555C44.6582 52.7316 45.8541 54.9292 45.8541 58.288C45.8541 63.0846 45.8081 66.9388 45.8081 68.103C45.8081 69.0422 46.452 70.1639 48.3378 69.8052C63.0593 65.0998 73.5922 51.6586 73.5922 35.8434C73.5922 16.0493 57.1168 0 36.7961 0Z" fill="#8E8E8E"/>
</svg>
