<svg width="100" height="100" viewBox="0 0 100 100" fill="none" xmlns="http://www.w3.org/2000/svg">
<path d="M50 1.5625C23.2406 1.5625 1.5625 23.2437 1.5625 50C1.5625 76.7563 23.2437 98.4375 50 98.4375C76.7594 98.4375 98.4375 76.7563 98.4375 50C98.4375 23.2437 76.7563 1.5625 50 1.5625ZM73.7906 34.7469L65.8406 72.2094C65.2531 74.8656 63.6719 75.5094 61.4656 74.2594L49.3562 65.3344L43.5156 70.9594C42.8719 71.6031 42.325 72.15 41.075 72.15L41.9344 59.825L64.375 39.55C65.3531 38.6906 64.1594 38.2031 62.8688 39.0625L35.1344 56.5219L23.1813 52.7906C20.5844 51.9719 20.525 50.1937 23.7281 48.9437L70.4281 30.9344C72.5969 30.1531 74.4906 31.4625 73.7875 34.7438L73.7906 34.7469Z" fill="#8E8E8E"/>
</svg>
