<svg width="75" height="74" viewBox="0 0 75 74" fill="none" xmlns="http://www.w3.org/2000/svg">
<path d="M37.7024 0C17.3783 0 0.90625 16.472 0.90625 36.7961C0.90625 57.1202 17.3783 73.5922 37.7024 73.5922C58.0265 73.5922 74.4985 57.1202 74.4985 36.7961C74.4985 16.472 58.0265 0 37.7024 0ZM57.9977 51.5146H53.1826C51.3572 51.5146 50.7822 49.7035 47.5913 45.9951C44.8316 42.7755 43.4086 42.3155 42.7043 42.3155C41.7126 42.3155 41.382 42.5599 41.382 44.0404V49.5023C41.382 50.724 41.0658 51.5146 37.9755 51.5146C32.8873 51.5146 27.1235 48.0649 22.7539 42.0856C16.7315 33.8352 15.6247 26.6628 15.6247 25.3405C15.6247 24.6074 15.8547 23.9175 17.2633 23.9175H22.1215C23.3433 23.9175 23.8032 24.4637 24.2775 25.8866C26.4336 33.1165 29.6532 38.6359 31.2918 38.6359C31.8955 38.6359 32.183 38.3485 32.183 36.7243V30.055C31.9961 26.6197 30.3431 26.3178 30.3431 25.0961C30.3431 24.5068 30.7312 23.9175 31.4787 23.9175H40.0309C41.0658 23.9175 41.382 24.5068 41.382 25.786V35.33C41.382 36.408 42.2013 36.7961 42.5319 36.7961C43.1355 36.7961 43.7105 36.8249 44.8316 35.6462C48.2956 31.5642 51.2853 25.3836 51.2853 25.3836C51.6159 24.6505 52.1765 23.9175 53.3982 23.9175H58.2133C59.2913 23.9175 59.7513 24.4062 59.78 25.0674C59.7944 25.2973 59.7513 25.5561 59.6651 25.8292C59.0614 28.7757 52.8376 37.5148 52.8808 37.5148C52.622 37.9747 52.4352 38.291 52.4208 38.6359C52.4064 38.9665 52.5358 39.2971 52.8808 39.7858C53.3982 40.5189 54.505 41.87 55.6405 43.2354C57.6815 45.7077 59.3201 48.2949 59.6794 49.3585C59.7513 49.646 59.7944 49.9047 59.78 50.1347C59.7513 51.0402 59.1045 51.5146 57.9977 51.5146Z" fill="#8E8E8E"/>
</svg>
