<svg width="35" height="35" viewBox="0 0 35 35" fill="none" xmlns="http://www.w3.org/2000/svg">
<path d="M30.3313 19.015C29.3669 19.2712 28.3734 19.4008 27.3756 19.4007C24.3373 19.4007 21.484 18.2195 19.3409 16.0764C17.9335 14.6609 16.9217 12.9013 16.4064 10.9729C15.891 9.04456 15.8901 7.01479 16.4036 5.08595C16.4678 4.84478 16.4674 4.59099 16.4025 4.35003C16.3376 4.10907 16.2104 3.88942 16.0338 3.71311C15.8572 3.53679 15.6374 3.41002 15.3963 3.3455C15.1552 3.28098 14.9014 3.28099 14.6604 3.34552C12.2456 3.98901 10.0426 5.25618 8.27218 7.01991C2.72503 12.5671 2.72503 21.5965 8.27218 27.1465C9.5907 28.4724 11.1591 29.5236 12.8866 30.2393C14.614 30.955 16.4663 31.321 18.3362 31.3161C20.2056 31.3214 22.0574 30.9556 23.7844 30.2402C25.5115 29.5247 27.0794 28.4736 28.3973 27.1479C30.1624 25.3772 31.4301 23.173 32.0731 20.7569C32.137 20.5158 32.1365 20.2622 32.0716 20.0214C32.0067 19.7806 31.8798 19.5611 31.7034 19.3847C31.5271 19.2084 31.3076 19.0814 31.0668 19.0166C30.826 18.9517 30.5724 18.9512 30.3313 19.015V19.015ZM26.3865 25.1357C25.332 26.196 24.0776 27.0367 22.696 27.609C21.3144 28.1813 19.833 28.474 18.3376 28.47C16.8417 28.4737 15.3598 28.1808 13.9778 27.6082C12.5957 27.0357 11.3409 26.1948 10.2858 25.1343C5.84868 20.6957 5.84868 13.4721 10.2858 9.03356C11.1432 8.17711 12.1331 7.4645 13.2174 6.92314C13.0587 8.97103 13.344 11.029 14.0538 12.9565C14.7635 14.884 15.8811 16.6356 17.3301 18.0914C18.7827 19.5449 20.5338 20.6656 22.4621 21.3759C24.3904 22.0863 26.4499 22.3693 28.4984 22.2056C27.9541 23.288 27.2412 24.277 26.3865 25.1357V25.1357Z" fill="#6E6E6E"/>
</svg>
