<svg width="35" height="35" viewBox="0 0 35 35" fill="none" xmlns="http://www.w3.org/2000/svg">
<path d="M10.5594 17.5279C10.5594 21.457 13.7557 24.6532 17.6848 24.6532C21.6139 24.6532 24.8101 21.457 24.8101 17.5279C24.8101 13.5988 21.6139 10.4025 17.6848 10.4025C13.7557 10.4025 10.5594 13.5988 10.5594 17.5279ZM17.6848 13.2487C20.0442 13.2487 21.964 15.1684 21.964 17.5279C21.964 19.8874 20.0442 21.8071 17.6848 21.8071C15.3253 21.8071 13.4056 19.8874 13.4056 17.5279C13.4056 15.1684 15.3253 13.2487 17.6848 13.2487ZM16.2589 27.4894H19.105V31.7587H16.2589V27.4894ZM16.2589 3.29712H19.105V7.56635H16.2589V3.29712ZM3.45117 16.1048H7.7204V18.951H3.45117V16.1048ZM27.6435 16.1048H31.9127V18.951H27.6435V16.1048ZM6.61183 26.5829L9.62875 23.5632L11.6424 25.5754L8.62548 28.5952L6.61183 26.5829ZM23.7186 9.47897L26.7384 6.4592L28.7506 8.47143L25.7309 11.4912L23.7186 9.47897ZM9.63302 11.4926L6.61325 8.47285L8.6269 6.46062L11.6438 9.48039L9.63302 11.4926ZM28.7506 26.5844L26.7384 28.5966L23.7186 25.5768L25.7309 23.5646L28.7506 26.5844Z" fill="#AEAEAE"/>
</svg>
